<svg xmlns="http://www.w3.org/2000/svg" xmlns:xlink="http://www.w3.org/1999/xlink" width="100%" height="100%" fill-rule="evenodd" stroke-linejoin="bevel" stroke-width=".501" overflow="visible" version="1.1" viewBox="0 0 220.5 257.25"><g id="Document" fill="none" stroke="#000" font-family="Times New Roman" font-size="16" transform="scale(1 -1)"><g id="Spread" transform="translate(0 -257.25)"><g id="bg" display="none"><rect width="250.501" height="291.749" x="-11.649" y="-18.35" fill="#000" stroke="#000" stroke-width=".5" rx="25.05"/><rect width="9.751" height="64.5" x="187.851" y="162.4" fill="#000" stroke="#000" stroke-width=".5" rx=".975"/></g><g id="use-b"><g id="Group" fill="#a4c639" stroke="#fff" stroke-width="10.8"><rect width="136" height="136" x="-68" y="-68" rx="18" transform="translate(110.25 123) rotate(90)"/><ellipse rx="62.769" ry="68" transform="translate(110.25 175.481) rotate(90)"/></g></g><g id="use-a"><rect width="64.5" height="9.75" x="-32.249" y="-4.874" fill="#a4c639" stroke="#fff" stroke-width="5.4" rx="4.875" transform="translate(140.053 225.993) rotate(58.9927)"/><rect width="36" height="99.75" x="3" y="75.752" fill="#a4c639" stroke="#fff" stroke-width="5.4" rx="18"/><rect width="36" height="99.75" x="66.752" y="3" fill="#a4c639" stroke="#fff" stroke-width="5.4" rx="18"/></g><g id="a"><g id="Group_1" fill="#a4c639" stroke="#fff" stroke-width="5.4"><rect width="64.5" height="9.75" x="-32.249" y="-4.874" rx="4.875" transform="translate(80.445 225.993) rotate(121.007)"/><rect width="99.75" height="36" x="-49.874" y="-17.999" rx="18" transform="translate(199.497 125.626) rotate(90)"/><rect width="99.75" height="36" x="-49.874" y="-17.999" rx="18" transform="translate(135.747 52.876) rotate(90)"/></g></g><g id="b"><g id="Group_2" fill="#a4c639" stroke="none" stroke-width=".498"><rect width="136" height="136" x="-68" y="-68" rx="18" transform="translate(110.25 123) rotate(90)"/><ellipse rx="62.769" ry="68" transform="translate(110.25 175.481) rotate(90)"/></g></g><g id="svg"><g id="Group_3" stroke="none"><path fill="#424f17" stroke-miterlimit="79.84" stroke-width=".498" d="M 42.25,174.56 L 42.25,71.442 C 42.25,62.367 49.616,55 58.691,55 L 161.811,55 C 170.886,55 178.25,62.367 178.25,71.442 L 178.25,174.56 L 42.25,174.56"/><g id="Group_4" fill="#ffb13b"><g id="Group_5"><ellipse stroke-width=".08" rx="9.888" ry="9.889" transform="translate(110.25 156.481) rotate(-78.6742)"/><ellipse stroke-width=".08" rx="9.888" ry="9.889" transform="translate(110.25 67.869) rotate(-78.6742)"/><rect width="82.725" height="14.003" x="-41.362" y="-7" stroke-width=".081" transform="translate(110.215 112.31) rotate(90)"/></g><g id="Group_6"><ellipse stroke-width=".08" rx="9.889" ry="9.889" transform="translate(65.946 112.176) rotate(11.3247)"/><ellipse stroke-width=".08" rx="9.889" ry="9.889" transform="translate(154.557 112.176) rotate(11.3247)"/><rect width="82.725" height="14.003" x="-41.362" y="-7" stroke-width=".081" transform="translate(110.118 112.138) rotate(180)"/></g><g id="Group_7"><ellipse stroke-width=".08" rx="9.888" ry="9.888" transform="translate(78.922 80.846) rotate(56.3324)"/><ellipse stroke-width=".08" rx="9.888" ry="9.888" transform="translate(141.58 143.504) rotate(56.3324)"/><rect width="82.731" height="14.004" x="-41.365" y="-7" stroke-width=".081" transform="translate(110.183 112.054) rotate(-135)"/></g><g id="Group_8"><ellipse stroke-width=".08" rx="9.888" ry="9.888" transform="translate(78.923 143.504) rotate(-33.6676)"/><ellipse stroke-width=".08" rx="9.888" ry="9.888" transform="translate(141.58 80.846) rotate(-33.6676)"/><rect width="82.731" height="14.004" x="-41.365" y="-7" stroke-width=".081" transform="translate(110.131 112.244) rotate(135)"/></g></g></g></g><g id="e"><path stroke="#fff" stroke-width="5.4" marker-end="none" marker-start="none" d="M 39,172.875 L 181.5,172.875 L 39,172.875 Z"/><ellipse cx="79" cy="203" fill="#fff" stroke="#fff" stroke-width="5.4" rx="3" ry="3"/><ellipse cx="142" cy="203" fill="#fff" stroke="#fff" stroke-width="5.4" rx="3" ry="3"/></g></g></g></svg>